<svg xmlns="http://www.w3.org/2000/svg" xmlns:xlink="http://www.w3.org/1999/xlink" width="200" zoomAndPan="magnify" viewBox="0 0 150 149.999998" height="200" preserveAspectRatio="xMidYMid meet" version="1.0"><path fill="#ffffff" d="M 67.453125 16.375 C 63.207031 24.496094 49.417969 51.109375 36.8125 75.515625 C 24.207031 99.921875 11.15625 125.058594 7.8125 131.371094 C 4.464844 137.6875 1.726562 143.746094 1.726562 144.839844 C 1.726562 148.960938 3.414062 149.304688 23.519531 149.304688 L 42.835938 149.304688 L 48.980469 137.695312 C 67.214844 103.246094 98.730469 39.875 98.691406 37.738281 C 98.664062 36.378906 94.835938 27.835938 90.175781 18.757812 C 82.132812 3.074219 81.542969 2.230469 78.445312 1.925781 C 75.21875 1.613281 75.085938 1.789062 67.453125 16.375 M 100.550781 57.714844 C 98.25 59.488281 81.191406 92.730469 81.191406 95.445312 C 81.191406 97.503906 102.976562 145.222656 105.191406 148.015625 C 106.617188 149.8125 145.238281 149.859375 147.035156 148.066406 C 150.179688 144.921875 148.367188 140.523438 122.269531 87.898438 C 108.785156 60.71875 106.210938 56.425781 103.378906 56.425781 C 102.746094 56.425781 101.472656 57.003906 100.550781 57.714844 M 76.375 104.738281 C 74.390625 106 54.191406 145.089844 54.554688 146.96875 C 54.875 148.636719 56.691406 148.789062 76.5625 148.789062 C 97.445312 148.789062 98.230469 148.714844 98.476562 146.722656 C 98.800781 144.15625 81.039062 106.015625 78.984375 104.867188 C 78.160156 104.40625 76.984375 104.347656 76.375 104.738281 M 73.453125 123.503906 C 74.015625 126.84375 73.84375 127.632812 72.550781 127.632812 C 67.386719 127.632812 64.707031 137.980469 68.808594 142.078125 C 71.714844 144.988281 78.359375 144.882812 81.152344 141.886719 C 84.105469 138.714844 83.964844 132.785156 80.867188 129.875 C 79.554688 128.640625 77.886719 127.632812 77.164062 127.632812 C 76.203125 127.632812 76.039062 126.523438 76.546875 123.503906 C 77.183594 119.738281 77.046875 119.375 75 119.375 C 72.953125 119.375 72.816406 119.738281 73.453125 123.503906 M 68.808594 133.308594 C 68.808594 134.160156 69.503906 134.855469 70.355469 134.855469 C 71.207031 134.855469 71.902344 134.160156 71.902344 133.308594 C 71.902344 132.457031 71.207031 131.761719 70.355469 131.761719 C 69.503906 131.761719 68.808594 132.457031 68.808594 133.308594 M 78.753906 132.476562 C 77.59375 133.636719 78.046875 134.855469 79.644531 134.855469 C 80.496094 134.855469 81.191406 134.417969 81.191406 133.886719 C 81.191406 132.582031 79.578125 131.652344 78.753906 132.476562 " fill-opacity="1" fill-rule="evenodd"/></svg>